<svg width="18" height="20" viewBox="0 0 18 20" fill="none" xmlns="http://www.w3.org/2000/svg">
<path d="M15.9596 3.4685L11.0404 0.558265C10.4197 0.192496 9.7161 0 9 0C8.2839 0 7.58033 0.192496 6.95955 0.558265L2.04045 3.4685C1.42086 3.83639 0.906344 4.36442 0.548287 4.99985C0.19023 5.63527 0.00117202 6.35584 0 7.08957V12.91C0.00119351 13.6439 0.190253 14.3646 0.548301 15.0001C0.906349 15.6357 1.42086 16.1639 2.04045 16.5319L6.95955 19.4414C7.58025 19.8074 8.28385 20 9 20C9.71615 20 10.4197 19.8074 11.0404 19.4414L15.9596 16.5319C16.5791 16.1639 17.0937 15.6357 17.4517 15.0001C17.8097 14.3646 17.9988 13.6439 18 12.91V7.08957C17.9988 6.35584 17.8098 5.63527 17.4517 4.99985C17.0937 4.36442 16.5791 3.83639 15.9596 3.4685ZM7.77573 2.00753C8.14796 1.78733 8.57019 1.67141 9 1.67141C9.42981 1.67141 9.85204 1.78733 10.2243 2.00753L15.1434 4.91693C15.2681 4.99771 15.3853 5.09009 15.4935 5.1929L10.4389 8.18258C10.0013 8.44106 9.5051 8.57712 9 8.57712C8.4949 8.57712 7.99867 8.44106 7.56108 8.18258L2.50648 5.1929C2.61468 5.09009 2.73189 4.99771 2.85662 4.91693L7.77573 2.00753ZM2.85662 15.0827C2.48461 14.8618 2.17573 14.5448 1.96088 14.1632C1.74603 13.7816 1.63274 13.3489 1.63236 12.9084V7.08957C1.63802 6.93891 1.65743 6.78912 1.69031 6.64216L6.7449 9.63185C7.1913 9.89203 7.67803 10.0717 8.18382 10.1629V18.1652C8.04284 18.121 7.90621 18.0633 7.77573 17.9929L2.85662 15.0827ZM16.3676 12.9084C16.3673 13.3489 16.254 13.7816 16.0391 14.1632C15.8243 14.5448 15.5154 14.8618 15.1434 15.0827L10.2243 17.9929C10.0938 18.0633 9.95716 18.121 9.81618 18.1652V10.1629C10.322 10.0717 10.8087 9.89203 11.2551 9.63185L16.3097 6.64216C16.3426 6.78912 16.362 6.93891 16.3676 7.08957V12.9084Z" fill="#1D1D1D"/>
</svg>
