<svg width="20" height="12" viewBox="0 0 20 12" fill="none" xmlns="http://www.w3.org/2000/svg">
<path d="M20 0.856148C20 1.32703 19.625 1.7123 19.1667 1.7123H0.833333C0.375 1.7123 0 1.32703 0 0.856148C0 0.385267 0.375 0 0.833333 0H19.1667C19.625 0 20 0.385267 20 0.856148ZM12.619 10.2877H7.61905C7.16071 10.2877 6.78571 10.673 6.78571 11.1439C6.78571 11.6147 7.16071 12 7.61905 12H12.619C13.0774 12 13.4524 11.6147 13.4524 11.1439C13.4524 10.673 13.0774 10.2877 12.619 10.2877ZM15.9524 5.13689H10.119H4.28571C3.82738 5.13689 3.45238 5.52216 3.45238 5.99304C3.45238 6.46392 3.82738 6.84918 4.28571 6.84918H15.9524C16.4107 6.84918 16.7857 6.46392 16.7857 5.99304C16.7857 5.52216 16.4107 5.13689 15.9524 5.13689Z" fill="#1D1D1D"/>
</svg>
