<svg width="20" height="20" viewBox="0 0 20 20" fill="none" xmlns="http://www.w3.org/2000/svg">
<path d="M20 9.99969C20 10.4606 19.6267 10.8331 19.1667 10.8331H0.833333C0.373333 10.8331 0 10.4606 0 9.99969C0 9.5388 0.373333 9.16626 0.833333 9.16626H19.1667C19.6267 9.16626 20 9.5388 20 9.99969ZM7.25583 4.40988L9.16667 2.49883V6.66597C9.16667 7.12686 9.54 7.4994 10 7.4994C10.46 7.4994 10.8333 7.12686 10.8333 6.66597V2.49883L12.7442 4.40988C12.9067 4.5724 13.12 4.65408 13.3333 4.65408C13.5467 4.65408 13.76 4.5724 13.9225 4.40988C14.2483 4.08401 14.2483 3.55728 13.9225 3.23141L11.1783 0.486931C10.5292 -0.16231 9.47083 -0.16231 8.82167 0.486931L6.0775 3.23141C5.75167 3.55728 5.75167 4.08401 6.0775 4.40988C6.40333 4.73575 6.93 4.73575 7.25583 4.40988ZM12.7442 15.5895L10.8333 17.5005V13.3334C10.8333 12.8725 10.46 12.5 10 12.5C9.54 12.5 9.16667 12.8725 9.16667 13.3334V17.5005L7.25583 15.5895C6.93 15.2636 6.40333 15.2636 6.0775 15.5895C5.75167 15.9154 5.75167 16.4421 6.0775 16.768L8.82167 19.5124C9.14667 19.8375 9.57333 20 10 20C10.4267 20 10.8533 19.8375 11.1783 19.5124L13.9225 16.768C14.2483 16.4421 14.2483 15.9154 13.9225 15.5895C13.5967 15.2636 13.07 15.2636 12.7442 15.5895Z" fill="#1D1D1D"/>
</svg>
