<svg width="18" height="20" viewBox="0 0 18 20" fill="none" xmlns="http://www.w3.org/2000/svg">
<path d="M11.1665 4.5775C11.88 3.99333 12.6164 3.20833 12.9886 2.25417C13.1834 1.75583 13.122 1.19083 12.8225 0.740833C12.5141 0.276667 12.0027 0 11.4545 0H6.54545C5.99727 0 5.48591 0.2775 5.17745 0.740833C4.878 1.19083 4.81664 1.75583 5.01055 2.2525C5.38364 3.2075 6.11918 3.99333 6.83345 4.57667C3.02318 6.0175 0 10.9658 0 15C0 17.7575 2.20173 20 4.90909 20H13.0909C15.7983 20 18 17.7575 18 15C18 10.9658 14.9768 6.0175 11.1665 4.5775ZM11.4676 1.6375C11.0463 2.7175 9.75436 3.63167 8.99836 4.0625C8.24318 3.635 6.957 2.72917 6.54464 1.66667L11.4676 1.6375ZM13.0901 18.3333H4.90909C3.10418 18.3333 1.63636 16.8383 1.63636 15C1.63636 10.6308 5.49 5.83333 9 5.83333C12.51 5.83333 16.3636 10.6308 16.3636 15C16.3636 16.8383 14.895 18.3333 13.0901 18.3333Z" fill="#1D1D1D"/>
</svg>
