<svg width="18" height="18" viewBox="0 0 18 18" fill="none" xmlns="http://www.w3.org/2000/svg">
<path d="M17.1157 12.8853L5.11508 0.886111C4.24144 0.0125326 2.98911 -0.237918 1.85001 0.236739C0.708657 0.708396 0 1.76869 0 3.00444V14.2455C0 16.3158 1.68428 18 3.75476 18H14.9965C16.2309 18 17.292 17.2914 17.7644 16.1501C18.2369 15.0088 17.9886 13.7588 17.1157 12.8853ZM16.3801 15.5772C16.1401 16.1554 15.6234 16.5003 14.9973 16.5003H3.75476C2.51142 16.5003 1.4998 15.4887 1.4998 14.2455V3.00444C1.4998 2.37832 1.84476 1.86167 2.42368 1.62172C2.61941 1.54073 2.81813 1.50099 3.01385 1.50099C3.39555 1.50099 3.76226 1.65321 4.05472 1.9464L5.26281 3.15442L3.832 4.58513C3.53878 4.87833 3.53878 5.35223 3.832 5.64543C3.97823 5.79165 4.1702 5.86513 4.36218 5.86513C4.55415 5.86513 4.74613 5.79165 4.89236 5.64543L6.32317 4.21471L7.42252 5.31399L5.99171 6.74471C5.6985 7.0379 5.6985 7.51181 5.99171 7.805C6.13794 7.95122 6.32992 8.02471 6.52189 8.02471C6.71387 8.02471 6.90584 7.95122 7.05207 7.805L8.48289 6.37428L9.544 7.43457L8.11318 8.86529C7.81997 9.15849 7.81997 9.63239 8.11318 9.92559C8.25941 10.0718 8.45139 10.1453 8.64336 10.1453C8.83534 10.1453 9.02731 10.0718 9.17354 9.92559L10.6044 8.49487L11.6647 9.55516L10.2339 10.9859C9.94069 11.2791 9.94069 11.753 10.2339 12.0462C10.3801 12.1924 10.5721 12.2659 10.7641 12.2659C10.9561 12.2659 11.148 12.1924 11.2943 12.0462L12.7251 10.6154L13.7854 11.6757L12.3546 13.1065C12.0614 13.3997 12.0614 13.8736 12.3546 14.1668C12.5009 14.313 12.6928 14.3865 12.8848 14.3865C13.0768 14.3865 13.2688 14.313 13.415 14.1668L14.8458 12.736L16.0539 13.944C16.4963 14.3872 16.6178 14.9968 16.3786 15.5757L16.3801 15.5772ZM8.02994 12.2209C8.24442 12.4353 8.30891 12.7578 8.19267 13.0382C8.07644 13.3187 7.80272 13.5009 7.49976 13.5009H5.25006C4.83611 13.5009 4.50016 13.1657 4.50016 12.751V10.5015C4.50016 10.1985 4.68313 9.92409 4.96285 9.80861C5.24331 9.69163 5.56577 9.75687 5.78024 9.97133L8.02994 12.2209Z" fill="#1D1D1D"/>
</svg>
