<svg width="20" height="10" viewBox="0 0 20 10" fill="none" xmlns="http://www.w3.org/2000/svg">
<path d="M19.2688 3.33222L16.0434 0.234359C15.966 0.160099 15.8738 0.101156 15.7722 0.0609326C15.6707 0.020709 15.5617 0 15.4517 0C15.3417 0 15.2327 0.020709 15.1312 0.0609326C15.0296 0.101156 14.9374 0.160099 14.86 0.234359C14.7047 0.382805 14.6176 0.583613 14.6176 0.792925C14.6176 1.00224 14.7047 1.20305 14.86 1.35149L17.827 4.19582H0.833425C0.612387 4.19582 0.400402 4.2793 0.244105 4.42788C0.087807 4.57646 0 4.77799 0 4.98812C0 5.19825 0.087807 5.39977 0.244105 5.54835C0.400402 5.69694 0.612387 5.78041 0.833425 5.78041H17.877L14.86 8.64059C14.7819 8.71424 14.7198 8.80187 14.6775 8.89842C14.6352 8.99496 14.6134 9.09852 14.6134 9.20311C14.6134 9.30771 14.6352 9.41126 14.6775 9.50781C14.7198 9.60436 14.7819 9.69199 14.86 9.76564C14.9374 9.8399 15.0296 9.89884 15.1312 9.93907C15.2327 9.97929 15.3417 10 15.4517 10C15.5617 10 15.6707 9.97929 15.7722 9.93907C15.8738 9.89884 15.966 9.8399 16.0434 9.76564L19.2688 6.69155C19.737 6.24588 20 5.64176 20 5.01188C20 4.38201 19.737 3.77789 19.2688 3.33222Z" fill="white"/>
</svg>
